<svg width="24" height="36" viewBox="0 0 24 36" fill="none" xmlns="http://www.w3.org/2000/svg">
<path d="M5.92883 35.5724C9.20152 35.5724 11.8577 32.9163 11.8577 29.6436V23.7148H5.92883C2.65614 23.7148 0 26.371 0 29.6436C0 32.9163 2.65614 35.5724 5.92883 35.5724Z" fill="#0ACF83"/>
<path d="M0 17.7862C0 14.5135 2.65614 11.8574 5.92883 11.8574H11.8577V23.7149H5.92883C2.65614 23.715 0 21.0589 0 17.7862Z" fill="#A259FF"/>
<path d="M0 5.92879C0 2.65612 2.65614 0 5.92883 0H11.8577V11.8574H5.92883C2.65614 11.8574 0 9.20145 0 5.92879Z" fill="#F24E1E"/>
<path d="M11.8574 0H17.7863C21.0589 0 23.7151 2.65612 23.7151 5.92879C23.7151 9.20145 21.0589 11.8574 17.7863 11.8574H11.8574V0Z" fill="#FF7262"/>
<path d="M23.7151 17.7862C23.7151 21.0589 21.0589 23.715 17.7863 23.715C14.5136 23.715 11.8574 21.0589 11.8574 17.7862C11.8574 14.5135 14.5136 11.8574 17.7863 11.8574C21.0589 11.8574 23.7151 14.5135 23.7151 17.7862Z" fill="#1ABCFE"/>
</svg>
