<svg width="36" height="36" viewBox="0 0 36 36" fill="none" xmlns="http://www.w3.org/2000/svg">
<path fill-rule="evenodd" clip-rule="evenodd" d="M18.0934 0.740967C13.871 0.743158 9.78703 2.23865 6.57178 4.96004C3.35654 7.68143 1.21966 11.4513 0.543257 15.5954C-0.133152 19.7396 0.695006 23.9879 2.87966 27.5806C5.06432 31.1734 8.46301 33.8764 12.468 35.2062C13.3516 35.3702 13.6844 34.8225 13.6844 34.3569C13.6844 33.8913 13.6667 32.5413 13.6608 31.0653C8.71284 32.1342 7.66729 28.9773 7.66729 28.9773C6.8603 26.9274 5.69399 26.3885 5.69399 26.3885C4.08 25.2933 5.81475 25.3138 5.81475 25.3138C7.6025 25.4397 8.54203 27.1382 8.54203 27.1382C10.1266 29.8412 12.7036 29.0593 13.7168 28.6025C13.8758 27.4574 14.3382 26.6785 14.8478 26.2363C10.8953 25.7911 6.74249 24.2742 6.74249 17.4977C6.71799 15.7402 7.37388 14.0407 8.57443 12.7506C8.39182 12.3055 7.78215 10.5074 8.74819 8.06508C8.74819 8.06508 10.2414 7.59067 13.6402 9.87781C16.5555 9.08511 19.6313 9.08511 22.5466 9.87781C25.9424 7.59067 27.4327 8.06508 27.4327 8.06508C28.4017 10.5016 27.792 12.2997 27.6094 12.7506C28.8138 14.0409 29.471 15.7434 29.4443 17.5036C29.4443 24.2947 25.2827 25.7911 21.3243 26.2275C21.9605 26.778 22.5289 27.8528 22.5289 29.5044C22.5289 31.8706 22.5083 33.7742 22.5083 34.3569C22.5083 34.8284 22.8293 35.379 23.7306 35.2062C27.736 33.8762 31.135 31.1728 33.3197 27.5794C35.5043 23.986 36.332 19.7371 35.6548 15.5925C34.9777 11.448 32.8397 7.67812 29.6234 4.9572C26.4071 2.23628 22.3222 0.741769 18.0993 0.740967H18.0934Z" fill="#191717"/>
<path d="M7.04295 26.1338C7.00466 26.2216 6.86329 26.248 6.74843 26.1865C6.63356 26.125 6.54816 26.0108 6.58939 25.92C6.63062 25.8292 6.76905 25.8058 6.88391 25.8673C6.99878 25.9288 7.08713 26.0459 7.04295 26.1338Z" fill="#191717"/>
<path d="M7.76411 26.9332C7.70311 26.9637 7.63333 26.9723 7.56671 26.9573C7.50009 26.9424 7.44077 26.9048 7.3989 26.8512C7.28404 26.7282 7.26046 26.5583 7.34882 26.4822C7.43718 26.4061 7.59623 26.4412 7.7111 26.5642C7.82596 26.6872 7.85246 26.857 7.76411 26.9332Z" fill="#191717"/>
<path d="M8.46553 27.9496C8.35656 28.0257 8.171 27.9496 8.06792 27.7973C8.03941 27.77 8.01675 27.7372 8.00126 27.701C7.98577 27.6648 7.97778 27.6258 7.97778 27.5864C7.97778 27.5471 7.98577 27.5081 8.00126 27.4719C8.01675 27.4357 8.03941 27.4029 8.06792 27.3756C8.17689 27.3024 8.36245 27.3756 8.46553 27.5249C8.56861 27.6743 8.57156 27.8734 8.46553 27.9496Z" fill="#191717"/>
<path d="M9.41665 28.9333C9.31945 29.0417 9.12213 29.0124 8.96014 28.866C8.79815 28.7195 8.75985 28.5204 8.85705 28.415C8.95424 28.3095 9.15157 28.3388 9.31945 28.4823C9.48733 28.6258 9.51973 28.8279 9.41665 28.9333Z" fill="#191717"/>
<path d="M10.7507 29.5073C10.7065 29.645 10.5063 29.7065 10.306 29.6479C10.1057 29.5893 9.97318 29.4253 10.0115 29.2848C10.0498 29.1442 10.253 29.0798 10.4562 29.1442C10.6594 29.2086 10.789 29.3638 10.7507 29.5073Z" fill="#191717"/>
<path d="M12.2057 29.6069C12.2057 29.7504 12.0408 29.8734 11.8287 29.8763C11.6166 29.8792 11.4429 29.7621 11.4429 29.6186C11.4429 29.4751 11.6078 29.3521 11.8199 29.3492C12.0319 29.3462 12.2057 29.4605 12.2057 29.6069Z" fill="#191717"/>
<path d="M13.5604 29.3814C13.587 29.5249 13.4397 29.6742 13.2276 29.7094C13.0156 29.7445 12.83 29.6596 12.8035 29.519C12.777 29.3784 12.9302 29.2262 13.1363 29.1881C13.3425 29.15 13.5339 29.2379 13.5604 29.3814Z" fill="#191717"/>
</svg>
