<svg width="36" height="36" viewBox="0 0 36 36" fill="none" xmlns="http://www.w3.org/2000/svg">
<path d="M33.1462 0H2.82565C2.1292 0 1.46129 0.276661 0.968827 0.76912C0.476368 1.26158 0.199707 1.9295 0.199707 2.62594V32.9465C0.199707 33.6429 0.476368 34.3109 0.968827 34.8033C1.46129 35.2958 2.1292 35.5724 2.82565 35.5724H33.1462C33.8427 35.5724 34.5106 35.2958 35.003 34.8033C35.4955 34.3109 35.7722 33.6429 35.7722 32.9465V2.62594C35.7722 1.9295 35.4955 1.26158 35.003 0.76912C34.5106 0.276661 33.8427 0 33.1462 0ZM10.8023 30.3033H5.45405V13.315H10.8023V30.3033ZM8.12446 10.9608C7.5178 10.9573 6.92574 10.7743 6.42301 10.4347C5.92028 10.0951 5.52941 9.61424 5.29972 9.05273C5.07004 8.49121 5.01184 7.87425 5.13247 7.27969C5.25309 6.68513 5.54714 6.13962 5.9775 5.71202C6.40785 5.28441 6.95523 4.99388 7.55056 4.87707C8.14588 4.76027 8.76246 4.82243 9.32249 5.05571C9.88251 5.289 10.3609 5.68295 10.6972 6.18785C11.0336 6.69274 11.2128 7.28596 11.2123 7.89264C11.2181 8.29881 11.142 8.70197 10.9886 9.07809C10.8351 9.45422 10.6076 9.79561 10.3194 10.0819C10.0313 10.3682 9.68843 10.5936 9.31133 10.7446C8.93422 10.8956 8.53058 10.9691 8.12446 10.9608ZM30.5153 30.3181H25.1696V21.0372C25.1696 18.3 24.0061 17.4552 22.5041 17.4552C20.9182 17.4552 19.3619 18.6508 19.3619 21.1063V30.3181H14.0137V13.3273H19.1569V15.6815H19.226C19.7423 14.6366 21.5506 12.8505 24.3099 12.8505C27.2941 12.8505 30.5178 14.6218 30.5178 19.8094L30.5153 30.3181Z" fill="#0A66C2"/>
</svg>
